<svg xmlns="http://www.w3.org/2000/svg" xmlns:xlink="http://www.w3.org/1999/xlink" width="500" zoomAndPan="magnify" viewBox="0 0 375 374.999991" height="500" preserveAspectRatio="xMidYMid meet" version="1.0"><defs><g/></defs><rect x="-37.5" width="450" fill="#ffffff" y="-37.499999" height="449.999989" fill-opacity="1"/><rect x="-37.5" width="450" fill="#ffffff" y="-37.499999" height="449.999989" fill-opacity="1"/><path fill="#fd2525" d="M 224.449219 190.734375 C 226.96875 186.375 225.472656 180.796875 221.109375 178.277344 C 216.746094 175.757812 211.167969 177.253906 208.652344 181.617188 C 208.152344 182.480469 207.808594 183.394531 207.617188 184.320312 L 195.675781 184.320312 C 195.277344 182.417969 194.273438 180.652344 192.75 179.324219 L 198.714844 168.992188 C 202.757812 170.375 207.34375 168.757812 209.5625 164.917969 C 212.078125 160.558594 210.585938 154.980469 206.222656 152.460938 C 203.753906 151.035156 200.898438 150.894531 198.425781 151.832031 L 192.53125 141.621094 C 193.371094 140.941406 194.105469 140.09375 194.675781 139.101562 C 197.195312 134.742188 195.703125 129.164062 191.339844 126.644531 C 186.976562 124.125 181.398438 125.621094 178.878906 129.984375 C 176.363281 134.34375 177.855469 139.921875 182.21875 142.441406 C 184.488281 143.75 187.085938 143.976562 189.414062 143.273438 L 195.433594 153.699219 C 194.789062 154.296875 194.226562 155 193.765625 155.800781 C 193.234375 156.71875 192.882812 157.691406 192.695312 158.679688 L 180.824219 158.679688 C 180.347656 156.164062 178.816406 153.859375 176.421875 152.476562 C 172.0625 149.960938 166.484375 151.453125 163.964844 155.816406 C 161.75 159.65625 162.640625 164.4375 165.859375 167.246094 L 159.894531 177.578125 C 155.851562 176.191406 151.265625 177.808594 149.050781 181.648438 C 146.53125 186.011719 148.027344 191.589844 152.390625 194.109375 C 156.75 196.628906 162.328125 195.132812 164.847656 190.769531 C 167.0625 186.929688 166.171875 182.148438 162.953125 179.339844 L 168.917969 169.007812 C 170.882812 169.683594 172.976562 169.644531 174.863281 168.988281 L 180.800781 179.273438 C 180.042969 179.925781 179.378906 180.714844 178.851562 181.632812 C 176.332031 185.996094 177.824219 191.574219 182.1875 194.089844 C 186.550781 196.609375 192.128906 195.113281 194.648438 190.753906 C 195.183594 189.824219 195.535156 188.84375 195.71875 187.847656 L 207.585938 187.847656 C 208.058594 190.375 209.585938 192.6875 211.988281 194.074219 C 216.351562 196.589844 221.929688 195.097656 224.449219 190.734375 Z M 192.734375 162.207031 C 193.128906 164.117188 194.132812 165.894531 195.660156 167.226562 L 189.695312 177.558594 C 187.773438 176.902344 185.730469 176.921875 183.875 177.539062 L 177.910156 167.207031 C 178.625 166.570312 179.257812 165.8125 179.761719 164.9375 C 180.265625 164.0625 180.609375 163.144531 180.800781 162.207031 Z M 192.734375 162.207031 " fill-opacity="1" fill-rule="nonzero"/><g fill="#1c1d33" fill-opacity="1"><g transform="translate(96.17455, 230.116809)"><g><path d="M 7.1875 0 L 1.796875 0 L 1.796875 -22.9375 L 7.28125 -22.9375 L 16.078125 -9.015625 L 16.078125 -22.9375 L 21.46875 -22.9375 L 21.46875 0 L 16 0 L 7.1875 -14.015625 Z M 7.1875 0 "/></g></g></g><g fill="#1c1d33" fill-opacity="1"><g transform="translate(120.949686, 230.116809)"><g><path d="M 17.46875 0 L 1.796875 0 L 1.796875 -22.9375 L 17.46875 -22.9375 L 17.46875 -18.125 L 7.1875 -18.125 L 7.1875 -13.859375 L 16.46875 -13.859375 L 16.46875 -9.078125 L 7.1875 -9.078125 L 7.1875 -4.8125 L 17.46875 -4.8125 Z M 17.46875 0 "/></g></g></g><g fill="#1c1d33" fill-opacity="1"><g transform="translate(141.214828, 230.116809)"><g><path d="M 6.5 0 L 0.125 0 L 7.546875 -11.390625 L 0.0625 -22.9375 L 6.46875 -22.9375 L 11.25 -15.03125 L 16.046875 -22.9375 L 22.453125 -22.9375 L 14.96875 -11.390625 L 22.390625 0 L 16.015625 0 L 11.265625 -7.359375 Z M 6.5 0 "/></g></g></g><g fill="#1c1d33" fill-opacity="1"><g transform="translate(165.238289, 230.116809)"><g><path d="M 12.078125 0 L 6.703125 0 L 6.703125 -18.125 L 0.234375 -18.125 L 0.234375 -22.9375 L 18.546875 -22.9375 L 18.546875 -18.125 L 12.078125 -18.125 Z M 12.078125 0 "/></g></g></g><g fill="#1c1d33" fill-opacity="1"><g transform="translate(189.679854, 230.116809)"><g><path d="M 10.015625 0 L 7.578125 0 L 0.65625 -22.9375 L 2.859375 -22.9375 L 8.921875 -2.953125 L 15.265625 -22.9375 L 17.21875 -22.9375 L 23.53125 -2.96875 L 29.671875 -22.9375 L 31.84375 -22.9375 L 24.890625 0 L 22.484375 0 L 16.265625 -19.546875 Z M 10.015625 0 "/></g></g></g><g fill="#1c1d33" fill-opacity="1"><g transform="translate(224.286877, 230.116809)"><g><path d="M 2.609375 0 L 0.484375 0 L 9.140625 -22.9375 L 11.546875 -22.9375 L 20.203125 0 L 18.0625 0 L 15.75 -6.1875 L 4.9375 -6.1875 Z M 10.34375 -20.796875 L 5.59375 -8.0625 L 15.09375 -8.0625 Z M 10.34375 -20.796875 "/></g></g></g><g fill="#1c1d33" fill-opacity="1"><g transform="translate(247.077701, 230.116809)"><g><path d="M 11.546875 0 L 9.140625 0 L 0.484375 -22.9375 L 2.609375 -22.9375 L 10.34375 -2.078125 L 18.0625 -22.9375 L 20.203125 -22.9375 Z M 11.546875 0 "/></g></g></g><g fill="#1c1d33" fill-opacity="1"><g transform="translate(269.868529, 230.116809)"><g><path d="M 16.984375 0 L 2.375 0 L 2.375 -22.9375 L 16.984375 -22.9375 L 16.984375 -21.078125 L 4.453125 -21.078125 L 4.453125 -12.453125 L 15.453125 -12.453125 L 15.453125 -10.578125 L 4.453125 -10.578125 L 4.453125 -1.859375 L 16.984375 -1.859375 Z M 16.984375 0 "/></g></g></g><g fill="#fd2525" fill-opacity="1"><g transform="translate(120.176601, 248.667749)"><g><path d="M 4.328125 -4.765625 L 2.578125 -4.765625 L 2.578125 0 L 1.859375 0 L 1.859375 -4.765625 L 0.109375 -4.765625 L 0.109375 -5.390625 L 4.328125 -5.390625 Z M 4.328125 -4.765625 "/></g></g></g><g fill="#fd2525" fill-opacity="1"><g transform="translate(129.570013, 248.667749)"><g><path d="M 4.015625 -0.59375 L 4 0 L 0.6875 0 L 0.6875 -5.390625 L 4 -5.390625 L 4 -4.796875 L 1.421875 -4.796875 L 1.421875 -3 L 3.515625 -3 L 3.515625 -2.4375 L 1.421875 -2.4375 L 1.421875 -0.59375 Z M 4.015625 -0.59375 "/></g></g></g><g fill="#fd2525" fill-opacity="1"><g transform="translate(138.865702, 248.667749)"><g><path d="M 4.46875 -1.109375 C 4.507812 -1.109375 4.546875 -1.09375 4.578125 -1.0625 L 4.859375 -0.75 C 4.640625 -0.5 4.375 -0.300781 4.0625 -0.15625 C 3.75 -0.0078125 3.367188 0.0625 2.921875 0.0625 C 2.535156 0.0625 2.179688 -0.00390625 1.859375 -0.140625 C 1.546875 -0.273438 1.273438 -0.460938 1.046875 -0.703125 C 0.828125 -0.941406 0.65625 -1.226562 0.53125 -1.5625 C 0.414062 -1.90625 0.359375 -2.28125 0.359375 -2.6875 C 0.359375 -3.09375 0.421875 -3.460938 0.546875 -3.796875 C 0.671875 -4.140625 0.847656 -4.429688 1.078125 -4.671875 C 1.316406 -4.921875 1.597656 -5.109375 1.921875 -5.234375 C 2.242188 -5.367188 2.597656 -5.4375 2.984375 -5.4375 C 3.367188 -5.4375 3.707031 -5.375 4 -5.25 C 4.300781 -5.132812 4.5625 -4.972656 4.78125 -4.765625 L 4.546875 -4.421875 C 4.523438 -4.398438 4.503906 -4.378906 4.484375 -4.359375 C 4.460938 -4.347656 4.429688 -4.34375 4.390625 -4.34375 C 4.335938 -4.34375 4.28125 -4.363281 4.21875 -4.40625 C 4.15625 -4.457031 4.070312 -4.515625 3.96875 -4.578125 C 3.863281 -4.640625 3.726562 -4.691406 3.5625 -4.734375 C 3.40625 -4.785156 3.210938 -4.8125 2.984375 -4.8125 C 2.703125 -4.8125 2.445312 -4.765625 2.21875 -4.671875 C 1.988281 -4.578125 1.789062 -4.4375 1.625 -4.25 C 1.457031 -4.0625 1.328125 -3.835938 1.234375 -3.578125 C 1.140625 -3.316406 1.09375 -3.019531 1.09375 -2.6875 C 1.09375 -2.351562 1.140625 -2.050781 1.234375 -1.78125 C 1.335938 -1.519531 1.472656 -1.300781 1.640625 -1.125 C 1.804688 -0.945312 2 -0.804688 2.21875 -0.703125 C 2.445312 -0.609375 2.695312 -0.5625 2.96875 -0.5625 C 3.125 -0.5625 3.265625 -0.570312 3.390625 -0.59375 C 3.523438 -0.613281 3.644531 -0.644531 3.75 -0.6875 C 3.863281 -0.726562 3.96875 -0.773438 4.0625 -0.828125 C 4.15625 -0.890625 4.25 -0.96875 4.34375 -1.0625 C 4.382812 -1.09375 4.425781 -1.109375 4.46875 -1.109375 Z M 4.46875 -1.109375 "/></g></g></g><g fill="#fd2525" fill-opacity="1"><g transform="translate(148.841742, 248.667749)"><g><path d="M 5.046875 -5.390625 L 5.046875 0 L 4.328125 0 L 4.328125 -2.453125 L 1.421875 -2.453125 L 1.421875 0 L 0.6875 0 L 0.6875 -5.390625 L 1.421875 -5.390625 L 1.421875 -2.984375 L 4.328125 -2.984375 L 4.328125 -5.390625 Z M 5.046875 -5.390625 "/></g></g></g><g fill="#fd2525" fill-opacity="1"><g transform="translate(159.535732, 248.667749)"><g/></g></g><g fill="#fd2525" fill-opacity="1"><g transform="translate(166.414455, 248.667749)"><g><path d="M 3.4375 -4.546875 C 3.414062 -4.503906 3.390625 -4.472656 3.359375 -4.453125 C 3.335938 -4.441406 3.304688 -4.4375 3.265625 -4.4375 C 3.222656 -4.4375 3.171875 -4.457031 3.109375 -4.5 C 3.054688 -4.539062 2.988281 -4.585938 2.90625 -4.640625 C 2.820312 -4.691406 2.71875 -4.738281 2.59375 -4.78125 C 2.46875 -4.820312 2.320312 -4.84375 2.15625 -4.84375 C 1.988281 -4.84375 1.84375 -4.816406 1.71875 -4.765625 C 1.59375 -4.722656 1.488281 -4.664062 1.40625 -4.59375 C 1.320312 -4.519531 1.257812 -4.429688 1.21875 -4.328125 C 1.175781 -4.222656 1.15625 -4.113281 1.15625 -4 C 1.15625 -3.851562 1.191406 -3.726562 1.265625 -3.625 C 1.335938 -3.53125 1.4375 -3.445312 1.5625 -3.375 C 1.6875 -3.300781 1.820312 -3.238281 1.96875 -3.1875 C 2.125 -3.132812 2.28125 -3.082031 2.4375 -3.03125 C 2.601562 -2.976562 2.765625 -2.914062 2.921875 -2.84375 C 3.078125 -2.78125 3.210938 -2.691406 3.328125 -2.578125 C 3.453125 -2.472656 3.550781 -2.34375 3.625 -2.1875 C 3.695312 -2.039062 3.734375 -1.859375 3.734375 -1.640625 C 3.734375 -1.398438 3.691406 -1.175781 3.609375 -0.96875 C 3.535156 -0.757812 3.421875 -0.578125 3.265625 -0.421875 C 3.109375 -0.273438 2.914062 -0.15625 2.6875 -0.0625 C 2.46875 0.0195312 2.21875 0.0625 1.9375 0.0625 C 1.582031 0.0625 1.257812 0 0.96875 -0.125 C 0.6875 -0.25 0.445312 -0.421875 0.25 -0.640625 L 0.453125 -0.984375 C 0.472656 -1.015625 0.5 -1.039062 0.53125 -1.0625 C 0.5625 -1.082031 0.59375 -1.09375 0.625 -1.09375 C 0.65625 -1.09375 0.691406 -1.078125 0.734375 -1.046875 C 0.773438 -1.015625 0.820312 -0.976562 0.875 -0.9375 C 0.925781 -0.90625 0.984375 -0.863281 1.046875 -0.8125 C 1.117188 -0.769531 1.195312 -0.726562 1.28125 -0.6875 C 1.375 -0.644531 1.472656 -0.609375 1.578125 -0.578125 C 1.691406 -0.554688 1.816406 -0.546875 1.953125 -0.546875 C 2.128906 -0.546875 2.285156 -0.566406 2.421875 -0.609375 C 2.554688 -0.660156 2.671875 -0.726562 2.765625 -0.8125 C 2.859375 -0.90625 2.929688 -1.007812 2.984375 -1.125 C 3.035156 -1.25 3.0625 -1.382812 3.0625 -1.53125 C 3.0625 -1.695312 3.019531 -1.828125 2.9375 -1.921875 C 2.863281 -2.023438 2.765625 -2.113281 2.640625 -2.1875 C 2.523438 -2.257812 2.390625 -2.316406 2.234375 -2.359375 C 2.078125 -2.410156 1.921875 -2.460938 1.765625 -2.515625 C 1.609375 -2.566406 1.453125 -2.625 1.296875 -2.6875 C 1.140625 -2.757812 1 -2.847656 0.875 -2.953125 C 0.757812 -3.066406 0.664062 -3.203125 0.59375 -3.359375 C 0.519531 -3.523438 0.484375 -3.726562 0.484375 -3.96875 C 0.484375 -4.15625 0.519531 -4.335938 0.59375 -4.515625 C 0.664062 -4.691406 0.769531 -4.847656 0.90625 -4.984375 C 1.050781 -5.128906 1.226562 -5.238281 1.4375 -5.3125 C 1.644531 -5.394531 1.878906 -5.4375 2.140625 -5.4375 C 2.441406 -5.4375 2.71875 -5.390625 2.96875 -5.296875 C 3.21875 -5.203125 3.4375 -5.066406 3.625 -4.890625 Z M 3.4375 -4.546875 "/></g></g></g><g fill="#fd2525" fill-opacity="1"><g transform="translate(175.447013, 248.667749)"><g><path d="M 5.65625 -2.6875 C 5.65625 -2.28125 5.59375 -1.910156 5.46875 -1.578125 C 5.34375 -1.242188 5.160156 -0.953125 4.921875 -0.703125 C 4.691406 -0.460938 4.410156 -0.273438 4.078125 -0.140625 C 3.753906 -0.00390625 3.394531 0.0625 3 0.0625 C 2.601562 0.0625 2.242188 -0.00390625 1.921875 -0.140625 C 1.597656 -0.273438 1.316406 -0.460938 1.078125 -0.703125 C 0.847656 -0.953125 0.671875 -1.242188 0.546875 -1.578125 C 0.421875 -1.910156 0.359375 -2.28125 0.359375 -2.6875 C 0.359375 -3.09375 0.421875 -3.460938 0.546875 -3.796875 C 0.671875 -4.140625 0.847656 -4.429688 1.078125 -4.671875 C 1.316406 -4.921875 1.597656 -5.109375 1.921875 -5.234375 C 2.242188 -5.367188 2.601562 -5.4375 3 -5.4375 C 3.394531 -5.4375 3.753906 -5.367188 4.078125 -5.234375 C 4.410156 -5.109375 4.691406 -4.921875 4.921875 -4.671875 C 5.160156 -4.429688 5.34375 -4.140625 5.46875 -3.796875 C 5.59375 -3.460938 5.65625 -3.09375 5.65625 -2.6875 Z M 4.921875 -2.6875 C 4.921875 -3.019531 4.875 -3.316406 4.78125 -3.578125 C 4.6875 -3.835938 4.554688 -4.054688 4.390625 -4.234375 C 4.234375 -4.421875 4.035156 -4.5625 3.796875 -4.65625 C 3.554688 -4.757812 3.289062 -4.8125 3 -4.8125 C 2.71875 -4.8125 2.457031 -4.757812 2.21875 -4.65625 C 1.988281 -4.5625 1.789062 -4.421875 1.625 -4.234375 C 1.457031 -4.054688 1.328125 -3.835938 1.234375 -3.578125 C 1.140625 -3.316406 1.09375 -3.019531 1.09375 -2.6875 C 1.09375 -2.351562 1.140625 -2.054688 1.234375 -1.796875 C 1.328125 -1.535156 1.457031 -1.3125 1.625 -1.125 C 1.789062 -0.945312 1.988281 -0.8125 2.21875 -0.71875 C 2.457031 -0.625 2.71875 -0.578125 3 -0.578125 C 3.289062 -0.578125 3.554688 -0.625 3.796875 -0.71875 C 4.035156 -0.8125 4.234375 -0.945312 4.390625 -1.125 C 4.554688 -1.3125 4.6875 -1.535156 4.78125 -1.796875 C 4.875 -2.054688 4.921875 -2.351562 4.921875 -2.6875 Z M 4.921875 -2.6875 "/></g></g></g><g fill="#fd2525" fill-opacity="1"><g transform="translate(186.419162, 248.667749)"><g><path d="M 3.75 -0.609375 L 3.75 0 L 0.6875 0 L 0.6875 -5.390625 L 1.40625 -5.390625 L 1.40625 -0.609375 Z M 3.75 -0.609375 "/></g></g></g><g fill="#fd2525" fill-opacity="1"><g transform="translate(195.233711, 248.667749)"><g><path d="M 2.765625 -0.578125 C 2.984375 -0.578125 3.179688 -0.613281 3.359375 -0.6875 C 3.535156 -0.757812 3.679688 -0.863281 3.796875 -1 C 3.921875 -1.132812 4.015625 -1.296875 4.078125 -1.484375 C 4.148438 -1.679688 4.1875 -1.890625 4.1875 -2.109375 L 4.1875 -5.390625 L 4.90625 -5.390625 L 4.90625 -2.109375 C 4.90625 -1.796875 4.851562 -1.503906 4.75 -1.234375 C 4.65625 -0.972656 4.515625 -0.742188 4.328125 -0.546875 C 4.148438 -0.359375 3.925781 -0.207031 3.65625 -0.09375 C 3.394531 0.0078125 3.097656 0.0625 2.765625 0.0625 C 2.429688 0.0625 2.128906 0.0078125 1.859375 -0.09375 C 1.597656 -0.207031 1.375 -0.359375 1.1875 -0.546875 C 1.007812 -0.742188 0.867188 -0.972656 0.765625 -1.234375 C 0.671875 -1.503906 0.625 -1.796875 0.625 -2.109375 L 0.625 -5.390625 L 1.34375 -5.390625 L 1.34375 -2.109375 C 1.34375 -1.890625 1.375 -1.6875 1.4375 -1.5 C 1.5 -1.3125 1.59375 -1.148438 1.71875 -1.015625 C 1.84375 -0.878906 1.992188 -0.769531 2.171875 -0.6875 C 2.347656 -0.613281 2.546875 -0.578125 2.765625 -0.578125 Z M 2.765625 -0.578125 "/></g></g></g><g fill="#fd2525" fill-opacity="1"><g transform="translate(205.717204, 248.667749)"><g><path d="M 4.328125 -4.765625 L 2.578125 -4.765625 L 2.578125 0 L 1.859375 0 L 1.859375 -4.765625 L 0.109375 -4.765625 L 0.109375 -5.390625 L 4.328125 -5.390625 Z M 4.328125 -4.765625 "/></g></g></g><g fill="#fd2525" fill-opacity="1"><g transform="translate(215.110619, 248.667749)"><g><path d="M 1.421875 0 L 0.6875 0 L 0.6875 -5.390625 L 1.421875 -5.390625 Z M 1.421875 0 "/></g></g></g><g fill="#fd2525" fill-opacity="1"><g transform="translate(222.169776, 248.667749)"><g><path d="M 5.65625 -2.6875 C 5.65625 -2.28125 5.59375 -1.910156 5.46875 -1.578125 C 5.34375 -1.242188 5.160156 -0.953125 4.921875 -0.703125 C 4.691406 -0.460938 4.410156 -0.273438 4.078125 -0.140625 C 3.753906 -0.00390625 3.394531 0.0625 3 0.0625 C 2.601562 0.0625 2.242188 -0.00390625 1.921875 -0.140625 C 1.597656 -0.273438 1.316406 -0.460938 1.078125 -0.703125 C 0.847656 -0.953125 0.671875 -1.242188 0.546875 -1.578125 C 0.421875 -1.910156 0.359375 -2.28125 0.359375 -2.6875 C 0.359375 -3.09375 0.421875 -3.460938 0.546875 -3.796875 C 0.671875 -4.140625 0.847656 -4.429688 1.078125 -4.671875 C 1.316406 -4.921875 1.597656 -5.109375 1.921875 -5.234375 C 2.242188 -5.367188 2.601562 -5.4375 3 -5.4375 C 3.394531 -5.4375 3.753906 -5.367188 4.078125 -5.234375 C 4.410156 -5.109375 4.691406 -4.921875 4.921875 -4.671875 C 5.160156 -4.429688 5.34375 -4.140625 5.46875 -3.796875 C 5.59375 -3.460938 5.65625 -3.09375 5.65625 -2.6875 Z M 4.921875 -2.6875 C 4.921875 -3.019531 4.875 -3.316406 4.78125 -3.578125 C 4.6875 -3.835938 4.554688 -4.054688 4.390625 -4.234375 C 4.234375 -4.421875 4.035156 -4.5625 3.796875 -4.65625 C 3.554688 -4.757812 3.289062 -4.8125 3 -4.8125 C 2.71875 -4.8125 2.457031 -4.757812 2.21875 -4.65625 C 1.988281 -4.5625 1.789062 -4.421875 1.625 -4.234375 C 1.457031 -4.054688 1.328125 -3.835938 1.234375 -3.578125 C 1.140625 -3.316406 1.09375 -3.019531 1.09375 -2.6875 C 1.09375 -2.351562 1.140625 -2.054688 1.234375 -1.796875 C 1.328125 -1.535156 1.457031 -1.3125 1.625 -1.125 C 1.789062 -0.945312 1.988281 -0.8125 2.21875 -0.71875 C 2.457031 -0.625 2.71875 -0.578125 3 -0.578125 C 3.289062 -0.578125 3.554688 -0.625 3.796875 -0.71875 C 4.035156 -0.8125 4.234375 -0.945312 4.390625 -1.125 C 4.554688 -1.3125 4.6875 -1.535156 4.78125 -1.796875 C 4.875 -2.054688 4.921875 -2.351562 4.921875 -2.6875 Z M 4.921875 -2.6875 "/></g></g></g><g fill="#fd2525" fill-opacity="1"><g transform="translate(233.141925, 248.667749)"><g><path d="M 5.046875 -5.390625 L 5.046875 0 L 4.6875 0 C 4.625 0 4.570312 -0.0078125 4.53125 -0.03125 C 4.5 -0.0507812 4.460938 -0.0820312 4.421875 -0.125 L 1.3125 -4.1875 C 1.3125 -4.125 1.3125 -4.0625 1.3125 -4 C 1.320312 -3.945312 1.328125 -3.894531 1.328125 -3.84375 L 1.328125 0 L 0.6875 0 L 0.6875 -5.390625 L 1.0625 -5.390625 C 1.09375 -5.390625 1.117188 -5.382812 1.140625 -5.375 C 1.171875 -5.375 1.191406 -5.367188 1.203125 -5.359375 C 1.222656 -5.347656 1.238281 -5.332031 1.25 -5.3125 C 1.269531 -5.300781 1.289062 -5.285156 1.3125 -5.265625 L 4.4375 -1.203125 C 4.425781 -1.265625 4.414062 -1.328125 4.40625 -1.390625 C 4.40625 -1.453125 4.40625 -1.515625 4.40625 -1.578125 L 4.40625 -5.390625 Z M 5.046875 -5.390625 "/></g></g></g><g fill="#fd2525" fill-opacity="1"><g transform="translate(243.835917, 248.667749)"><g><path d="M 3.4375 -4.546875 C 3.414062 -4.503906 3.390625 -4.472656 3.359375 -4.453125 C 3.335938 -4.441406 3.304688 -4.4375 3.265625 -4.4375 C 3.222656 -4.4375 3.171875 -4.457031 3.109375 -4.5 C 3.054688 -4.539062 2.988281 -4.585938 2.90625 -4.640625 C 2.820312 -4.691406 2.71875 -4.738281 2.59375 -4.78125 C 2.46875 -4.820312 2.320312 -4.84375 2.15625 -4.84375 C 1.988281 -4.84375 1.84375 -4.816406 1.71875 -4.765625 C 1.59375 -4.722656 1.488281 -4.664062 1.40625 -4.59375 C 1.320312 -4.519531 1.257812 -4.429688 1.21875 -4.328125 C 1.175781 -4.222656 1.15625 -4.113281 1.15625 -4 C 1.15625 -3.851562 1.191406 -3.726562 1.265625 -3.625 C 1.335938 -3.53125 1.4375 -3.445312 1.5625 -3.375 C 1.6875 -3.300781 1.820312 -3.238281 1.96875 -3.1875 C 2.125 -3.132812 2.28125 -3.082031 2.4375 -3.03125 C 2.601562 -2.976562 2.765625 -2.914062 2.921875 -2.84375 C 3.078125 -2.78125 3.210938 -2.691406 3.328125 -2.578125 C 3.453125 -2.472656 3.550781 -2.34375 3.625 -2.1875 C 3.695312 -2.039062 3.734375 -1.859375 3.734375 -1.640625 C 3.734375 -1.398438 3.691406 -1.175781 3.609375 -0.96875 C 3.535156 -0.757812 3.421875 -0.578125 3.265625 -0.421875 C 3.109375 -0.273438 2.914062 -0.15625 2.6875 -0.0625 C 2.46875 0.0195312 2.21875 0.0625 1.9375 0.0625 C 1.582031 0.0625 1.257812 0 0.96875 -0.125 C 0.6875 -0.25 0.445312 -0.421875 0.25 -0.640625 L 0.453125 -0.984375 C 0.472656 -1.015625 0.5 -1.039062 0.53125 -1.0625 C 0.5625 -1.082031 0.59375 -1.09375 0.625 -1.09375 C 0.65625 -1.09375 0.691406 -1.078125 0.734375 -1.046875 C 0.773438 -1.015625 0.820312 -0.976562 0.875 -0.9375 C 0.925781 -0.90625 0.984375 -0.863281 1.046875 -0.8125 C 1.117188 -0.769531 1.195312 -0.726562 1.28125 -0.6875 C 1.375 -0.644531 1.472656 -0.609375 1.578125 -0.578125 C 1.691406 -0.554688 1.816406 -0.546875 1.953125 -0.546875 C 2.128906 -0.546875 2.285156 -0.566406 2.421875 -0.609375 C 2.554688 -0.660156 2.671875 -0.726562 2.765625 -0.8125 C 2.859375 -0.90625 2.929688 -1.007812 2.984375 -1.125 C 3.035156 -1.25 3.0625 -1.382812 3.0625 -1.53125 C 3.0625 -1.695312 3.019531 -1.828125 2.9375 -1.921875 C 2.863281 -2.023438 2.765625 -2.113281 2.640625 -2.1875 C 2.523438 -2.257812 2.390625 -2.316406 2.234375 -2.359375 C 2.078125 -2.410156 1.921875 -2.460938 1.765625 -2.515625 C 1.609375 -2.566406 1.453125 -2.625 1.296875 -2.6875 C 1.140625 -2.757812 1 -2.847656 0.875 -2.953125 C 0.757812 -3.066406 0.664062 -3.203125 0.59375 -3.359375 C 0.519531 -3.523438 0.484375 -3.726562 0.484375 -3.96875 C 0.484375 -4.15625 0.519531 -4.335938 0.59375 -4.515625 C 0.664062 -4.691406 0.769531 -4.847656 0.90625 -4.984375 C 1.050781 -5.128906 1.226562 -5.238281 1.4375 -5.3125 C 1.644531 -5.394531 1.878906 -5.4375 2.140625 -5.4375 C 2.441406 -5.4375 2.71875 -5.390625 2.96875 -5.296875 C 3.21875 -5.203125 3.4375 -5.066406 3.625 -4.890625 Z M 3.4375 -4.546875 "/></g></g></g></svg>